<mxfile host="app.diagrams.net" modified="2023-05-29T00:24:19.278Z" agent="Mozilla/5.0 (Windows NT 10.0; Win64; x64) AppleWebKit/537.36 (KHTML, like Gecko) Chrome/113.0.0.0 Safari/537.36" etag="lD-QohmucHa5jCJB8f0d" version="21.3.2" type="github">
  <diagram name="PÃ¡gina-1" id="oW6UBJfB_h0LVxH8RLMC">
    <mxGraphModel dx="880" dy="484" grid="1" gridSize="10" guides="1" tooltips="1" connect="1" arrows="1" fold="1" page="1" pageScale="1" pageWidth="827" pageHeight="1169" math="0" shadow="0">
      <root>
        <mxCell id="0" />
        <mxCell id="1" parent="0" />
        <mxCell id="JGHtlCT4hF4dQ-zpvAsc-1" value="A" style="ellipse;whiteSpace=wrap;html=1;aspect=fixed;fillColor=#00CC00;strokeColor=#36393d;gradientColor=#00CC00;" vertex="1" parent="1">
          <mxGeometry x="360" y="20" width="40" height="40" as="geometry" />
        </mxCell>
        <mxCell id="JGHtlCT4hF4dQ-zpvAsc-2" value="" style="ellipse;whiteSpace=wrap;html=1;aspect=fixed;fillColor=#d5e8d4;strokeColor=#82b366;gradientColor=#97d077;" vertex="1" parent="1">
          <mxGeometry x="360" y="90" width="40" height="40" as="geometry" />
        </mxCell>
        <mxCell id="JGHtlCT4hF4dQ-zpvAsc-3" value="" style="ellipse;whiteSpace=wrap;html=1;aspect=fixed;fillColor=#d5e8d4;strokeColor=#82b366;gradientColor=#97d077;" vertex="1" parent="1">
          <mxGeometry x="730" y="60" width="40" height="40" as="geometry" />
        </mxCell>
        <mxCell id="JGHtlCT4hF4dQ-zpvAsc-4" value="" style="ellipse;whiteSpace=wrap;html=1;aspect=fixed;fillColor=#d5e8d4;strokeColor=#82b366;gradientColor=#97d077;" vertex="1" parent="1">
          <mxGeometry x="660" y="20" width="40" height="40" as="geometry" />
        </mxCell>
        <mxCell id="JGHtlCT4hF4dQ-zpvAsc-5" value="" style="ellipse;whiteSpace=wrap;html=1;aspect=fixed;fillColor=#d5e8d4;strokeColor=#82b366;gradientColor=#97d077;" vertex="1" parent="1">
          <mxGeometry x="560" y="20" width="40" height="40" as="geometry" />
        </mxCell>
        <mxCell id="JGHtlCT4hF4dQ-zpvAsc-7" value="" style="ellipse;whiteSpace=wrap;html=1;aspect=fixed;fillColor=#d5e8d4;strokeColor=#82b366;gradientColor=#97d077;" vertex="1" parent="1">
          <mxGeometry x="640" y="80" width="40" height="40" as="geometry" />
        </mxCell>
        <mxCell id="JGHtlCT4hF4dQ-zpvAsc-8" value="" style="ellipse;whiteSpace=wrap;html=1;aspect=fixed;fillColor=#d5e8d4;strokeColor=#82b366;gradientColor=#97d077;" vertex="1" parent="1">
          <mxGeometry x="720" y="130" width="40" height="40" as="geometry" />
        </mxCell>
        <mxCell id="JGHtlCT4hF4dQ-zpvAsc-9" value="" style="ellipse;whiteSpace=wrap;html=1;aspect=fixed;fillColor=#d5e8d4;strokeColor=#82b366;gradientColor=#97d077;" vertex="1" parent="1">
          <mxGeometry x="570" y="80" width="40" height="40" as="geometry" />
        </mxCell>
        <mxCell id="JGHtlCT4hF4dQ-zpvAsc-10" value="" style="ellipse;whiteSpace=wrap;html=1;aspect=fixed;fillColor=#d5e8d4;strokeColor=#82b366;gradientColor=#97d077;" vertex="1" parent="1">
          <mxGeometry x="610" y="160" width="40" height="40" as="geometry" />
        </mxCell>
        <mxCell id="JGHtlCT4hF4dQ-zpvAsc-11" value="" style="ellipse;whiteSpace=wrap;html=1;aspect=fixed;fillColor=#d5e8d4;strokeColor=#82b366;gradientColor=#97d077;" vertex="1" parent="1">
          <mxGeometry x="700" y="210" width="40" height="40" as="geometry" />
        </mxCell>
        <mxCell id="JGHtlCT4hF4dQ-zpvAsc-12" value="" style="ellipse;whiteSpace=wrap;html=1;aspect=fixed;fillColor=#d5e8d4;strokeColor=#82b366;gradientColor=#97d077;" vertex="1" parent="1">
          <mxGeometry x="600" y="220" width="40" height="40" as="geometry" />
        </mxCell>
        <mxCell id="JGHtlCT4hF4dQ-zpvAsc-13" value="" style="ellipse;whiteSpace=wrap;html=1;aspect=fixed;fillColor=#d5e8d4;strokeColor=#82b366;gradientColor=#97d077;" vertex="1" parent="1">
          <mxGeometry x="530" y="140" width="40" height="40" as="geometry" />
        </mxCell>
        <mxCell id="JGHtlCT4hF4dQ-zpvAsc-14" value="" style="ellipse;whiteSpace=wrap;html=1;aspect=fixed;fillColor=#d5e8d4;strokeColor=#82b366;gradientColor=#97d077;" vertex="1" parent="1">
          <mxGeometry x="710" y="270" width="40" height="40" as="geometry" />
        </mxCell>
        <mxCell id="JGHtlCT4hF4dQ-zpvAsc-15" value="" style="ellipse;whiteSpace=wrap;html=1;aspect=fixed;fillColor=#d5e8d4;strokeColor=#82b366;gradientColor=#97d077;" vertex="1" parent="1">
          <mxGeometry x="480" y="60" width="40" height="40" as="geometry" />
        </mxCell>
        <mxCell id="JGHtlCT4hF4dQ-zpvAsc-16" value="" style="ellipse;whiteSpace=wrap;html=1;aspect=fixed;fillColor=#d5e8d4;strokeColor=#82b366;gradientColor=#97d077;" vertex="1" parent="1">
          <mxGeometry x="640" y="310" width="40" height="40" as="geometry" />
        </mxCell>
        <mxCell id="JGHtlCT4hF4dQ-zpvAsc-17" value="R" style="ellipse;whiteSpace=wrap;html=1;aspect=fixed;fillColor=#00CC00;strokeColor=#82b366;gradientColor=#00CC00;" vertex="1" parent="1">
          <mxGeometry x="760" y="330" width="40" height="40" as="geometry" />
        </mxCell>
        <mxCell id="JGHtlCT4hF4dQ-zpvAsc-18" value="" style="ellipse;whiteSpace=wrap;html=1;aspect=fixed;fillColor=#d5e8d4;strokeColor=#82b366;gradientColor=#97d077;" vertex="1" parent="1">
          <mxGeometry x="510" y="240" width="40" height="40" as="geometry" />
        </mxCell>
      </root>
    </mxGraphModel>
  </diagram>
</mxfile>
